<svg xmlns="http://www.w3.org/2000/svg" viewBox="0 0 1920 1080"><defs><style>.cls-1{fill:#181b20;}.cls-2{fill:#2d3139;}</style></defs><title>Asset 1dorost</title><g id="Layer_2" data-name="Layer 2"><g id="Layer_1-2" data-name="Layer 1"><rect class="cls-1" width="1920" height="1080"/><path class="cls-2" d="M1920,618V1080H1111.6a84.05,84.05,0,0,1,83.51-105.18h0a125.54,125.54,0,0,0,121.19-82.43A127.05,127.05,0,0,1,1451,808.3a129.78,129.78,0,0,1,15.84,2.88A328.9,328.9,0,0,0,1822.1,665.7a100,100,0,0,1,97.47-47.81C1919.71,617.91,1919.86,617.92,1920,618Z"/><path class="cls-2" d="M787.74,23.69A104,104,0,0,1,682,125.88c-.38,0-.75,0-1.13,0h0a265,265,0,0,0-253.1,165.53,141.07,141.07,0,0,1-134.25,90.83c-3.11-.05-6.19-.22-9.24-.47h0A195.3,195.3,0,0,0,91.36,493.23,104.09,104.09,0,0,1,0,555.05V0H785.44A104,104,0,0,1,787.74,23.69Z"/></g></g></svg>