<svg xmlns="http://www.w3.org/2000/svg" viewBox="0 0 512 512"><defs><style>.cls-1{fill:#2d3139;}.cls-2{fill:#181b20;}</style></defs><title>Asset 1dorost</title><g id="Layer_2" data-name="Layer 2"><g id="Capa_1" data-name="Capa 1"><rect class="cls-1" width="512" height="512"/><path class="cls-2" d="M256,47A110.22,110.22,0,1,0,366.21,157.21,110.33,110.33,0,0,0,256,47Zm0,195.94a85.73,85.73,0,1,1,85.72-85.73A85.82,85.82,0,0,1,256,242.94Z"/><path class="cls-2" d="M290.15,292.74h-68.3c-56.5,0-112.26,26.08-149.54,82V465H439.69V374.75C402.46,318.9,346.72,292.74,290.15,292.74ZM415.2,440.51H96.8V382.25a152.42,152.42,0,0,1,125.05-65h68.3a152.42,152.42,0,0,1,125.05,65v58.26Z"/></g></g></svg>